<svg xmlns="http://www.w3.org/2000/svg" version="1.0" width="195.000000pt" height="195.000000pt" viewBox="0 0 195.000000 195.000000" preserveAspectRatio="xMidYMid meet">

<g transform="translate(0.000000,195.000000) scale(0.100000,-0.100000)" fill="#02feff" stroke="none">
<path d="M756 1919 c-37 -20 -40 -20 -107 -4 -63 16 -75 16 -136 2 -38 -8 -85 -15 -106 -15 -57 0 -177 -84 -177 -124 0 -9 -10 -22 -22 -29 -52 -26 -89 -74 -109 -139 -15 -52 -26 -70 -49 -84 -35 -20 -53 -50 -46 -74 4 -9 32 -29 64 -44 56 -27 219 -167 195 -168 -7 0 -13 -7 -13 -15 0 -8 -17 -30 -37 -50 -21 -19 -33 -35 -26 -35 7 0 10 -6 7 -14 -3 -8 4 -23 16 -34 20 -19 21 -24 9 -59 -19 -58 -16 -144 8 -192 11 -23 18 -43 14 -45 -3 -2 -34 -12 -69 -21 -69 -20 -92 -42 -92 -90 0 -16 -7 -39 -15 -49 -19 -25 -19 -105 0 -130 19 -25 19 -36 0 -36 -14 0 -55 -38 -47 -43 2 -1 -1 -15 -7 -30 -9 -22 -8 -32 4 -43 8 -9 19 -12 25 -9 5 3 10 1 10 -5 0 -6 4 -9 9 -6 5 3 11 -1 15 -9 3 -8 24 -18 47 -21 24 -4 60 -21 85 -40 24 -19 49 -34 55 -34 6 0 24 -11 41 -25 16 -13 48 -29 71 -35 23 -6 67 -20 97 -31 30 -11 69 -24 85 -30 17 -5 37 -21 46 -37 14 -24 25 -30 85 -40 116 -19 237 -24 300 -13 33 6 131 15 219 20 88 5 172 14 188 20 28 11 67 75 53 88 -4 4 -16 -3 -26 -17 -11 -14 -20 -21 -20 -16 0 4 -9 -2 -20 -15 -18 -23 -19 -23 -20 -4 l-1 20 -9 -20 c-7 -16 -9 -17 -9 -3 -1 9 -5 19 -10 22 -5 4 -7 -4 -3 -16 4 -16 1 -20 -9 -16 -8 3 -23 2 -34 -2 -11 -4 -26 -3 -32 2 -9 7 -17 7 -27 -1 -11 -9 -15 -8 -20 6 -6 14 -9 15 -16 3 -8 -14 -24 -19 -70 -23 -14 -1 -31 -6 -39 -11 -10 -6 -18 -3 -27 9 -12 16 -14 17 -20 2 -7 -20 -24 -22 -24 -3 0 7 -7 19 -15 26 -13 11 -15 8 -15 -21 l0 -34 -25 30 c-22 25 -25 27 -24 10 2 -34 0 -37 -16 -21 -12 11 -22 13 -40 6 -21 -8 -25 -6 -25 8 0 13 -2 14 -9 3 -9 -14 -31 -7 -31 10 0 6 5 7 10 4 15 -9 24 23 11 39 -8 9 -8 17 -2 20 5 3 12 0 14 -6 7 -17 27 10 21 27 -8 19 -48 10 -59 -13 -6 -14 -17 -21 -32 -20 -13 2 -23 6 -23 10 0 4 -4 8 -10 8 -29 0 7 -50 38 -53 18 -1 22 -7 22 -33 0 -28 -3 -31 -24 -27 -15 3 -29 16 -36 34 -14 33 -35 40 -25 8 5 -15 4 -19 -4 -15 -6 4 -11 14 -11 22 0 8 -7 17 -16 21 -10 3 -29 19 -44 35 -34 35 -38 35 -32 -2 2 -16 8 -27 13 -25 9 6 50 -14 61 -30 21 -28 5 -34 -27 -9 -19 14 -35 23 -35 19 0 -4 -7 -2 -15 5 -9 7 -14 19 -11 27 7 18 -11 63 -25 63 -7 0 -10 -3 -6 -6 8 -9 -18 -34 -35 -34 -8 0 -20 15 -27 33 l-13 32 -8 -25 -7 -25 -4 24 c-2 14 -9 26 -15 28 -7 2 -10 -6 -6 -24 5 -25 4 -27 -11 -14 -10 7 -17 20 -17 27 0 19 -19 18 -27 -2 -5 -13 -7 -13 -14 -2 -5 7 -13 13 -19 13 -6 0 -15 7 -20 15 -9 13 -11 13 -20 0 -8 -13 -10 -13 -10 2 0 9 -5 18 -10 20 -6 2 -12 13 -13 26 -2 28 -5 28 -17 0 -7 -18 -9 -19 -9 -5 -1 20 -17 23 -24 5 -3 -7 -6 -2 -6 11 -1 20 -3 22 -16 11 -13 -11 -14 -10 -9 4 3 9 9 17 13 17 3 1 22 3 41 5 63 7 86 14 70 24 -17 11 -108 11 -114 1 -6 -8 -71 -5 -86 4 -6 3 -10 2 -10 -3 0 -5 -8 -8 -18 -7 -30 4 -52 17 -52 32 0 8 -4 11 -10 8 -13 -8 -13 8 2 39 14 32 27 36 146 45 160 12 229 -8 326 -95 14 -13 44 -23 74 -27 28 -3 60 -12 71 -19 21 -13 30 -58 11 -58 -5 0 -10 -4 -10 -10 0 -5 4 -10 9 -10 12 0 61 47 61 60 0 6 -18 30 -41 54 l-40 44 -61 -3 c-62 -4 -94 6 -143 46 -11 9 -42 22 -70 28 -97 21 -122 27 -130 31 -14 7 -32 5 -51 -7 -26 -17 -91 -20 -105 -6 -17 17 -23 97 -10 121 7 14 17 19 28 15 13 -5 15 -3 8 13 -32 78 -15 92 180 144 88 24 164 47 169 51 6 6 4 14 -6 21 -21 17 -76 124 -84 164 -3 18 -24 53 -46 78 -40 46 -66 60 -54 31 8 -22 -20 -30 -39 -11 -10 10 -12 16 -5 16 6 0 10 5 8 11 -2 6 9 25 25 42 33 36 95 45 134 20 13 -8 23 -11 23 -7 1 5 8 -3 16 -18 14 -27 44 -39 44 -18 0 6 -4 10 -10 10 -5 0 -10 7 -10 15 0 8 -4 15 -9 15 -18 0 -19 28 -1 33 14 3 17 0 13 -12 -3 -11 2 -9 15 7 14 15 22 18 25 10 3 -9 13 -5 33 12 41 36 91 70 103 70 6 0 41 23 78 51 37 28 78 55 91 60 12 5 27 20 34 34 6 14 15 25 20 25 5 0 6 -4 3 -10 -9 -14 8 -12 24 3 11 10 13 10 7 0 -16 -28 14 -11 31 17 18 30 37 42 27 16 -3 -8 0 -17 6 -21 13 -8 42 14 34 26 -3 5 10 9 28 8 18 0 27 -3 21 -6 -7 -2 -13 -9 -13 -14 0 -4 7 -6 15 -3 8 4 15 1 15 -5 0 -7 8 -8 24 -1 29 10 68 2 59 -13 -4 -7 0 -8 13 -3 22 9 26 10 72 8 22 -1 31 -6 26 -13 -5 -8 2 -10 22 -6 27 5 27 4 9 -9 -18 -13 -18 -14 5 -14 l23 0 -23 -25 c-18 -19 -20 -25 -8 -25 9 0 21 7 28 15 7 8 18 15 25 15 6 0 20 9 31 21 10 11 26 18 35 16 10 -3 28 2 41 11 13 10 45 17 78 18 30 1 72 9 94 18 44 18 60 20 51 6 -7 -11 15 -11 60 0 l30 7 -37 7 c-21 5 -56 6 -78 4 -22 -2 -40 -1 -40 3 0 7 -53 -4 -152 -33 -50 -15 -72 -17 -87 -9 -11 6 -38 11 -60 11 -23 0 -41 5 -41 10 0 6 -20 10 -45 10 -32 0 -45 4 -45 14 0 10 -11 14 -32 14 -94 -1 -140 6 -151 24 -7 10 -18 18 -25 18 -7 0 -10 5 -7 10 3 6 2 10 -3 10 -4 0 -17 8 -28 18 -11 9 -29 22 -39 28 -21 12 -29 39 -45 158 -9 72 -22 107 -39 106 -3 -1 -23 -10 -45 -21z m144 -289 c0 -5 -4 -10 -10 -10 -5 0 -10 5 -10 10 0 6 5 10 10 10 6 0 10 -4 10 -10z m35 -50 c-3 -5 -10 -10 -16 -10 -5 0 -9 5 -9 10 0 6 7 10 16 10 8 0 12 -4 9 -10z m-435 -29 c5 -11 10 -29 10 -41 0 -13 8 -24 20 -27 10 -3 26 -16 35 -29 14 -21 14 -28 0 -59 -12 -30 -26 -41 -87 -69 -40 -19 -97 -40 -127 -47 -52 -13 -54 -13 -73 11 -12 15 -15 26 -9 28 6 2 11 9 11 15 0 20 -53 67 -75 67 -12 0 -30 9 -39 19 -21 23 -27 19 123 88 62 29 116 55 119 58 3 3 22 5 43 5 28 0 41 -5 49 -19z m-156 -505 c9 -21 10 -36 3 -47 -7 -12 -5 -29 6 -58 27 -66 22 -82 -14 -43 -47 50 -58 43 -68 -47 l-7 -56 -18 34 c-38 71 -31 197 15 255 19 25 21 25 45 9 14 -9 31 -30 38 -47z" fill="#02feff"/>
<path d="M341 1468 c-43 -20 -60 -33 -54 -39 13 -13 144 39 151 59 6 19 -28 13 -97 -20z" fill="#02feff"/>
<path d="M397 1402 c-57 -27 -71 -49 -26 -44 38 4 131 51 124 62 -9 15 -34 11 -98 -18z" fill="#02feff"/>
<path d="M1710 1511 c0 -3 18 -12 39 -18 21 -7 56 -22 76 -35 33 -19 35 -23 19 -29 -17 -6 -16 -8 8 -17 29 -12 39 -34 43 -101 2 -25 8 -47 14 -49 6 -2 9 -7 7 -10 -2 -4 0 -34 5 -67 6 -47 5 -63 -7 -76 -7 -8 -14 -25 -14 -36 0 -24 -66 -103 -86 -103 -8 0 -20 -13 -29 -30 -9 -18 -21 -27 -29 -24 -9 3 -17 -3 -21 -16 -4 -12 -12 -19 -20 -16 -15 5 -42 -21 -31 -31 10 -10 66 22 120 70 17 15 38 30 48 33 9 3 20 14 23 25 4 10 13 19 21 19 10 0 14 12 14 43 0 26 3 37 9 29 6 -10 11 -6 19 15 14 35 13 98 0 132 -13 32 -16 51 -19 120 -2 49 -7 59 -46 100 -24 24 -43 48 -43 53 0 4 -9 8 -20 8 -11 0 -20 4 -20 9 0 6 -18 9 -40 9 -22 0 -40 -3 -40 -7z" fill="#02feff"/>
<path d="M1200 1480 c-13 -8 -13 -10 2 -10 9 0 20 5 23 10 8 13 -5 13 -25 0z" fill="#02feff"/>
<path d="M1629 1426 c9 -11 9 -15 -1 -20 -9 -4 -8 -5 2 -3 9 1 16 -2 17 -8 1 -5 -6 -8 -15 -7 -13 3 -14 1 -3 -12 16 -19 1 -22 -17 -4 -9 9 -12 8 -12 -6 0 -11 -4 -15 -12 -9 -21 12 -56 14 -63 3 -3 -6 0 -7 9 -4 9 3 16 2 16 -4 0 -5 -14 -9 -30 -8 -22 2 -29 -2 -26 -11 7 -18 -4 -16 -26 4 -20 18 -39 10 -20 -9 16 -16 15 -33 -1 -20 -7 6 -18 7 -25 3 -8 -4 -25 -6 -40 -3 l-26 5 27 -26 c26 -24 27 -26 10 -36 -16 -9 -15 -10 8 -11 14 0 40 -11 58 -24 l34 -25 -27 -7 c-14 -3 -26 -10 -26 -15 0 -5 11 -4 25 1 19 7 23 6 18 -5 -3 -11 2 -15 18 -15 24 -1 24 -1 4 -16 -17 -13 -18 -17 -5 -27 8 -7 15 -19 15 -27 0 -11 9 -14 30 -12 25 2 27 0 13 -8 -25 -15 -24 -44 1 -37 13 3 18 0 15 -8 -3 -8 6 -15 23 -18 35 -7 53 8 22 18 -23 8 -23 8 -4 16 17 6 17 8 3 8 -24 1 -23 21 0 21 21 0 42 18 42 37 0 10 -7 9 -27 -4 -21 -14 -25 -14 -21 -3 2 8 16 21 31 28 15 7 32 23 39 35 10 20 10 21 -7 7 -16 -14 -17 -13 -12 5 3 11 9 34 12 50 l6 30 -15 -25 c-8 -14 -15 -32 -16 -41 0 -17 -30 -49 -30 -32 0 5 3 13 7 16 3 4 8 19 9 33 3 26 30 64 46 64 4 0 8 -10 8 -21 0 -18 2 -19 15 -9 8 7 15 22 16 34 0 11 4 30 8 41 7 18 9 17 24 -12 9 -17 14 -40 10 -49 -4 -12 -3 -15 5 -10 7 4 12 19 12 34 l1 27 14 -25 c11 -20 14 -21 15 -7 0 11 4 15 12 11 7 -5 9 -2 5 9 -4 11 -2 14 9 10 7 -3 14 -12 14 -21 0 -13 2 -14 13 -3 10 10 4 19 -28 47 -22 19 -31 31 -21 28 34 -13 7 17 -30 32 -40 17 -47 17 -39 4 3 -6 -1 -7 -9 -4 -9 3 -16 10 -16 14 0 4 -9 10 -20 13 -17 4 -20 2 -14 -15 4 -14 2 -18 -5 -14 -6 4 -11 13 -11 20 0 14 -31 46 -45 46 -4 0 -2 -6 4 -14z m-115 -135 c3 -5 -1 -12 -10 -15 -24 -9 -52 -7 -59 4 -4 7 2 9 19 4 16 -4 26 -2 26 5 0 13 17 15 24 2z m124 -56 c-11 -20 -23 -34 -25 -31 -6 6 29 66 39 66 4 0 -2 -16 -14 -35z" fill="#02feff"/>
<path d="M1035 1404 c-18 -18 -17 -19 24 -27 23 -5 39 -12 36 -18 -4 -5 -1 -9 4 -9 6 0 11 -7 11 -15 0 -8 8 -15 18 -15 10 0 13 3 6 8 -6 4 -14 17 -18 30 -4 12 -14 22 -22 22 -8 0 -12 5 -9 10 3 6 0 10 -9 10 -8 0 -16 5 -18 11 -2 7 -11 5 -23 -7z" fill="#02feff"/>
<path d="M958 1402 c-7 -2 -20 -6 -28 -9 -8 -4 -18 -5 -22 -5 -5 1 -8 -3 -8 -9 0 -5 -4 -8 -9 -4 -5 3 -12 -4 -16 -15 -4 -11 -10 -18 -15 -15 -8 5 -70 -53 -70 -67 0 -15 25 3 45 31 10 16 23 27 27 25 4 -3 20 2 35 9 15 8 45 17 67 20 34 5 55 19 56 38 0 7 -38 7 -62 1z" fill="#02feff"/>
<path d="M1730 1253 c0 -22 2 -25 10 -13 13 20 13 40 0 40 -5 0 -10 -12 -10 -27z" fill="#02feff"/>
<path d="M950 1255 c11 -13 10 -14 -5 -9 -13 5 -16 4 -11 -4 5 -8 0 -12 -14 -12 -13 0 -24 -8 -27 -20 -3 -11 -12 -20 -21 -20 -8 0 -12 -3 -9 -7 4 -3 -6 -16 -21 -27 -15 -12 -48 -43 -72 -71 -25 -27 -53 -57 -62 -66 -10 -9 -18 -23 -18 -31 0 -8 -14 -27 -31 -44 -17 -16 -37 -44 -46 -61 -8 -18 -22 -33 -30 -33 -8 0 -11 -4 -8 -10 3 -5 15 -10 26 -10 10 0 38 -14 61 -30 58 -42 108 -53 203 -45 90 7 103 13 169 71 47 42 58 70 32 80 -8 3 -13 14 -11 25 2 10 0 19 -4 19 -4 0 -8 6 -8 13 -1 33 -47 112 -89 152 -26 26 -44 51 -41 59 6 15 97 29 135 22 39 -8 26 20 -28 57 -27 19 -44 22 -35 7 3 -5 2 -10 -4 -10 -5 0 -13 5 -16 10 -3 6 -11 10 -17 10 -6 0 -6 -6 2 -15z m-51 -129 c70 -37 121 -124 121 -209 l0 -38 -32 37 c-30 34 -94 71 -105 61 -2 -3 0 -22 6 -44 13 -47 14 -93 2 -93 -5 0 -12 14 -16 30 -8 34 -50 90 -69 90 -32 0 -86 -92 -86 -146 0 -30 -14 -28 -60 9 -37 29 -37 41 3 82 18 19 39 47 47 62 18 35 59 82 145 163 13 12 12 12 44 -4z" fill="#02feff"/>
<path d="M1864 1194 c-1 -28 3 -43 10 -41 13 5 12 65 -1 78 -4 4 -8 -12 -9 -37z" fill="#02feff"/>
<path d="M1831 1200 c0 -33 1 -34 11 -12 8 17 8 26 0 34 -9 9 -12 4 -11 -22z" fill="#02feff"/>
<path d="M1405 1210 c-19 -8 -19 -9 2 -9 12 -1 25 4 28 9 7 12 -2 12 -30 0z" fill="#02feff"/>
<path d="M1770 1130 c0 -11 2 -20 4 -20 2 0 6 9 9 20 3 11 1 20 -4 20 -5 0 -9 -9 -9 -20z" fill="#02feff"/>
<path d="M495 1120 c3 -5 8 -10 11 -10 2 0 4 5 4 10 0 6 -5 10 -11 10 -5 0 -7 -4 -4 -10z" fill="#02feff"/>
<path d="M1690 1091 c-6 -12 -7 -21 -1 -21 10 0 24 30 17 37 -2 3 -9 -5 -16 -16z" fill="#02feff"/>
<path d="M1741 1103 c0 -6 -13 -25 -27 -42 -20 -24 -22 -31 -10 -31 21 0 49 44 43 67 -3 10 -5 13 -6 6z" fill="#02feff"/>
<path d="M560 1065 c-9 -11 -16 -12 -25 -5 -18 15 -31 -6 -16 -24 6 -7 8 -16 4 -19 -10 -10 6 -8 28 3 10 6 19 20 19 31 0 11 5 17 10 14 6 -3 10 -1 10 4 0 16 -16 13 -30 -4z" fill="#02feff"/>
<path d="M455 1013 c7 -48 32 -102 51 -110 19 -7 80 52 64 62 -6 3 -10 1 -10 -4 0 -6 -14 -11 -30 -11 -24 0 -33 6 -43 28 -6 15 -14 29 -18 32 -3 3 -9 12 -13 20 -3 8 -4 1 -1 -17z" fill="#02feff"/>
<path d="M1115 990 c3 -5 13 -10 20 -10 9 0 12 -6 9 -15 -5 -11 1 -15 17 -15 19 0 21 2 9 10 -8 5 -11 10 -6 10 5 0 3 7 -4 15 -14 16 -55 21 -45 5z" fill="#02feff"/>
<path d="M1159 926 c9 -11 9 -15 -1 -18 -10 -4 -10 -8 1 -22 14 -17 15 -17 23 3 9 27 0 51 -19 51 -12 0 -13 -3 -4 -14z" fill="#02feff"/>
<path d="M1665 887 c-4 -10 -14 -16 -21 -13 -7 3 -16 -4 -19 -15 -4 -10 -13 -19 -21 -19 -8 0 -14 -4 -14 -10 0 -5 -4 -10 -10 -10 -5 0 -7 7 -4 15 5 11 2 13 -10 9 -20 -8 -20 -18 -1 -34 8 -7 15 -21 15 -30 0 -10 6 -21 13 -23 9 -4 9 -6 0 -6 -19 -1 5 -59 30 -72 17 -9 19 -9 14 4 -3 9 1 21 8 27 13 11 12 16 -6 41 -17 24 -18 29 -5 29 8 0 19 -6 23 -13 4 -8 17 -19 28 -26 15 -9 16 -11 3 -7 -20 6 -25 -10 -5 -17 9 -3 9 -9 0 -25 -14 -23 -8 -32 21 -33 14 -1 11 -3 -9 -8 l-30 -6 23 -23 c23 -23 30 -38 12 -27 -5 3 -10 -2 -10 -11 0 -14 -3 -15 -12 -6 -26 26 -30 10 -5 -16 15 -15 27 -37 27 -47 0 -17 -2 -17 -21 4 -12 12 -24 19 -27 16 -4 -4 1 -11 11 -16 22 -13 22 -30 0 -22 -15 5 -16 3 -5 -8 20 -22 14 -34 -8 -14 -11 10 -22 16 -25 13 -7 -6 62 -68 76 -68 6 0 9 7 5 15 -3 8 0 15 6 15 7 0 6 5 -2 15 -11 13 -10 14 2 10 20 -8 26 24 24 121 0 41 3 75 8 77 11 4 -11 47 -24 47 -5 0 -7 7 -4 15 4 8 1 15 -4 15 -6 0 -12 12 -14 28 -3 23 -7 27 -33 25 -30 -3 -30 -2 -5 8 23 9 24 11 8 23 -16 11 -16 14 -1 28 8 9 13 22 10 30 -3 9 -7 8 -12 -5z" fill="#02feff"/>
<path d="M1521 868 c-1 -22 18 -33 32 -19 8 8 7 11 -5 11 -9 0 -19 6 -21 13 -3 7 -6 6 -6 -5z" fill="#02feff"/>
<path d="M1070 810 c-12 -12 -18 -25 -15 -30 3 -4 0 -10 -7 -12 -6 -2 -9 -12 -5 -21 6 -15 10 -16 27 -5 12 8 18 19 14 30 -3 9 0 26 6 38 14 26 6 26 -20 0z" fill="#02feff"/>
<path d="M1270 810 c0 -5 9 -10 21 -10 11 0 17 5 14 10 -3 6 -13 10 -21 10 -8 0 -14 -4 -14 -10z" fill="#02feff"/>
<path d="M1306 771 c16 -13 19 -22 12 -34 -7 -13 -5 -19 6 -23 9 -3 13 -10 10 -15 -3 -5 5 -18 18 -29 16 -14 18 -18 6 -14 -21 7 -25 -15 -6 -34 9 -9 8 -12 -5 -12 -21 0 -21 -4 -1 -35 15 -22 42 -26 29 -4 -4 5 1 9 9 9 17 0 22 25 6 35 -5 3 -7 12 -3 20 3 9 0 22 -6 29 -9 11 -9 15 0 18 15 5 -10 48 -28 48 -7 0 -10 6 -7 14 3 8 0 17 -6 21 -9 6 -9 10 1 16 9 6 2 9 -21 9 -35 -1 -35 -1 -14 -19z" fill="#02feff"/>
<path d="M666 732 c20 -35 71 -78 81 -69 9 10 -6 37 -24 44 -10 3 -31 18 -47 32 l-29 26 19 -33z" fill="#02feff"/>
<path d="M1015 730 c-3 -5 -1 -10 4 -10 6 0 11 5 11 10 0 6 -2 10 -4 10 -3 0 -8 -4 -11 -10z" fill="#02feff"/>
<path d="M131 717 c-14 -18 -15 -39 -3 -67 8 -18 11 -20 11 -7 1 20 31 23 49 5 7 -7 12 -22 12 -34 0 -31 10 -54 24 -54 14 1 60 41 74 66 10 17 11 17 12 2 0 -10 5 -18 10 -18 6 0 10 9 10 20 0 11 5 20 11 20 7 0 9 -11 6 -30 -6 -28 -5 -30 24 -30 25 0 33 6 46 38 23 53 21 73 -4 83 -17 6 -27 3 -40 -11 -17 -17 -23 -18 -81 -6 -34 8 -62 11 -62 9 0 -3 -6 -1 -12 5 -20 16 -76 22 -87 9z" fill="#02feff"/>
<path d="M295 722 c15 -16 65 -26 65 -13 0 6 -9 11 -19 11 -11 0 -28 3 -38 6 -12 5 -15 4 -8 -4z" fill="#02feff"/>
<path d="M570 690 c0 -5 5 -10 10 -10 6 0 10 5 10 10 0 6 -4 10 -10 10 -5 0 -10 -4 -10 -10z" fill="#02feff"/>
<path d="M761 674 c0 -11 3 -14 6 -6 3 7 2 16 -1 19 -3 4 -6 -2 -5 -13z" fill="#02feff"/>
<path d="M780 666 c0 -9 7 -19 15 -23 25 -9 27 2 5 22 -18 17 -20 17 -20 1z" fill="#02feff"/>
<path d="M1600 653 c0 -17 28 -42 48 -43 9 0 8 6 -3 24 -20 31 -45 41 -45 19z" fill="#02feff"/>
<path d="M502 644 c-17 -19 -15 -24 11 -24 28 0 48 13 39 25 -10 15 -36 14 -50 -1z" fill="#02feff"/>
<path d="M170 636 c0 -9 5 -16 10 -16 6 0 10 4 10 9 0 6 -4 13 -10 16 -5 3 -10 -1 -10 -9z" fill="#02feff"/>
<path d="M1603 606 c3 -8 2 -16 -3 -18 -9 -3 -1 -58 9 -58 3 0 12 14 20 30 10 24 10 34 1 45 -16 19 -34 19 -27 1z" fill="#02feff"/>
<path d="M1310 555 c-6 -15 -7 -31 -4 -37 4 -6 2 -8 -3 -5 -6 4 -14 0 -17 -9 -9 -23 -7 -34 5 -34 6 0 8 7 5 15 -3 10 -1 15 7 14 20 -3 47 12 47 27 0 8 -6 14 -12 14 -10 0 -10 2 0 9 10 6 10 10 -2 20 -13 11 -17 9 -26 -14z" fill="#02feff"/>
<path d="M1570 526 c0 -8 5 -18 10 -21 6 -3 10 3 10 14 0 12 -4 21 -10 21 -5 0 -10 -6 -10 -14z" fill="#02feff"/>
<path d="M1220 460 c-8 -5 -12 -12 -9 -15 8 -8 39 5 39 16 0 11 -11 11 -30 -1z" fill="#02feff"/>
<path d="M1626 428 c10 -12 13 -18 7 -14 -9 5 -12 -1 -9 -22 2 -16 7 -35 11 -43 6 -11 5 -12 -6 -1 -7 6 -16 12 -20 12 -8 0 24 -69 32 -70 9 0 21 41 19 63 -1 10 7 25 17 32 10 7 16 15 13 17 -21 17 -69 48 -76 48 -4 0 1 -10 12 -22z" fill="#02feff"/>
<path d="M1490 359 c0 -5 -5 -7 -11 -3 -8 4 -9 0 -4 -15 4 -15 3 -19 -7 -16 -9 4 -14 -3 -15 -17 -1 -13 -6 -24 -11 -26 -6 -2 -8 -13 -5 -25 4 -18 3 -19 -6 -7 -9 13 -11 12 -11 -3 0 -14 -5 -17 -20 -12 -14 5 -20 2 -20 -10 0 -12 -7 -15 -30 -11 -21 3 -30 0 -30 -10 0 -8 -6 -14 -14 -14 -8 0 -17 -7 -20 -16 -5 -13 -9 -14 -20 -5 -10 8 -16 9 -21 1 -3 -6 -11 -8 -16 -5 -5 4 -9 -4 -9 -16 0 -18 3 -20 12 -11 7 7 27 9 53 5 34 -4 45 -2 56 13 8 11 23 21 34 22 11 2 22 8 23 13 2 5 9 9 15 9 13 0 76 68 78 84 4 41 5 86 2 86 -1 0 -3 -5 -3 -11z" fill="#02feff"/>
<path d="M1588 296 c-10 -7 -15 -15 -13 -18 3 -3 -1 -11 -10 -18 -8 -7 -15 -21 -15 -32 0 -10 -4 -17 -8 -14 -5 3 -15 -6 -23 -20 -8 -16 -19 -24 -30 -21 -13 4 -18 -3 -22 -27 -2 -17 -3 -32 -2 -34 6 -7 65 29 65 39 0 5 9 19 20 31 11 12 20 31 20 42 0 17 2 18 10 6 8 -12 10 -11 10 8 0 12 4 22 9 22 13 0 23 32 14 41 -4 4 -16 2 -25 -5z" fill="#02feff"/>
<path d="M350 240 c0 -5 5 -10 10 -10 6 0 10 5 10 10 0 6 -4 10 -10 10 -5 0 -10 -4 -10 -10z" fill="#02feff"/>
<path d="M660 151 c0 -12 14 -21 41 -26 14 -3 19 0 17 12 -2 9 -9 18 -17 21 -9 3 -11 0 -6 -9 6 -11 5 -12 -6 -1 -15 14 -29 16 -29 3z" fill="#02feff"/>
</g>
</svg>